Coordinates
version=1
nRows=21
nColumns=22
inDegrees=yes

Units are S.I. units (second, meters, Newtons, ...)
If the header above contains a line with 'inDegrees', this indicates whether rotational values are in degrees (yes) or radians (no).

endheader
time	pelvis_tilt	pelvis_list	pelvis_rotation	pelvis_tx	pelvis_ty	pelvis_tz	hip_flexion_r	hip_adduction_r	hip_rotation_r	knee_angle_r	ankle_angle_r	subtalar_angle_r	hip_flexion_l	hip_adduction_l	hip_rotation_l	knee_angle_l	ankle_angle_l	subtalar_angle_l	lumbar_extension	lumbar_bending	lumbar_rotation
      1.87000000	     -0.00494442	      3.05831857	    157.50093655	     -0.33222407	      1.06949712	      0.93154531	      0.72352898	     14.38644766	     -7.68133772	     -8.03713834	      8.85299244	    -12.52771184	     15.49216322	     -7.18589591	      6.92859568	    -59.99683915	      3.16228451	      4.48957414	     -5.53371560	      3.68031582	     -3.32960145
      1.88000000	      0.03355625	      2.97451293	    156.37742811	     -0.33717618	      1.06937360	      0.92534984	      0.10175657	     14.48931762	     -6.46085018	     -7.85925599	      8.94067951	    -12.62064613	     16.43479367	     -7.21776024	      7.24612757	    -59.11808345	      4.13702440	      3.11342136	     -5.52332341	      3.52520316	     -3.01326903
      1.89000000	      0.08556778	      2.88249473	    155.23237331	     -0.34202435	      1.06917108	      0.91919290	     -0.47372938	     14.56559941	     -5.25696742	     -7.73880379	      9.03998487	    -12.71820820	     17.33934893	     -7.22222913	      7.59909290	    -58.07831789	      5.05890125	      1.85139774	     -5.50039822	      3.37603235	     -2.69397253
      1.90000000	      0.14924038	      2.77741559	    154.07255371	     -0.34679653	      1.06890229	      0.91310199	     -1.00839817	     14.61070251	     -4.05413414	     -7.66361815	      9.16106337	    -12.81556318	     18.20871951	     -7.18964267	      7.98983652	    -56.88759614	      5.89145533	      0.76622922	     -5.46310929	      3.23757358	     -2.39636819
      1.91000000	      0.21940993	      2.66068864	    152.90126163	     -0.35150836	      1.06857748	      0.90705186	     -1.50765952	     14.62785527	     -2.86289282	     -7.63390973	      9.29794920	    -12.91603871	     19.03688323	     -7.12476792	      8.40689320	    -55.55349461	      6.63278610	     -0.15831038	     -5.41249266	      3.09971140	     -2.10125129
      1.92000000	      0.29585448	      2.53192424	    151.72863981	     -0.35617818	      1.06819831	      0.90105408	     -1.97233230	     14.61800043	     -1.67032101	     -7.64602101	      9.46431563	    -13.00507383	     19.83122732	     -7.03193110	      8.84194893	    -54.09053949	      7.26238333	     -0.86802819	     -5.34786961	      2.96960286	     -1.84158533
      1.93000000	      0.36902819	      2.38940803	    150.56313293	     -0.36085240	      1.06778511	      0.89510770	     -2.41041669	     14.57617936	     -0.52025922	     -7.69656242	      9.64130731	    -13.09008551	     20.57855910	     -6.90839665	      9.27991635	    -52.49986411	      7.80953667	     -1.42444008	     -5.27118102	      2.83989726	     -1.60325014
      1.94000000	      0.44057628	      2.23245522	    149.40960575	     -0.36554843	      1.06733203	      0.88918251	     -2.82311065	     14.50622848	      0.60066154	     -7.78063919	      9.84290588	    -13.15802919	     21.28283734	     -6.76469164	      9.69869616	    -50.78983122	      8.27197063	     -1.81130232	     -5.17678668	      2.70767262	     -1.39392457
      1.95000000	      0.50464381	      2.06039232	    148.26831574	     -0.37028656	      1.06684894	      0.88328525	     -3.21303528	     14.40511326	      1.68988729	     -7.90132570	     10.06926897	    -13.21194642	     21.93691536	     -6.60299824	     10.07410276	    -48.96427661	      8.64936098	     -2.06551277	     -5.06993757	      2.57190029	     -1.20373138
      1.96000000	      0.56520776	      1.85910019	    147.14686352	     -0.37507947	      1.06632112	      0.87740659	     -3.55895091	     14.26518686	      2.72720065	     -8.07205579	     10.32192470	    -13.23246337	     22.55115713	     -6.41627737	     10.39071903	    -47.02643464	      8.95159219	     -2.17556279	     -4.93429618	      2.41816207	     -1.03335894
      1.97000000	      0.60099541	      1.64855890	    146.04100583	     -0.37994453	      1.06578725	      0.87153247	     -3.90011595	     14.09393469	      3.75188532	     -8.27962043	     10.60314043	    -13.25666724	     23.09407498	     -6.22000580	     10.61475493	    -44.98223243	      9.16284246	     -2.20967082	     -4.80265588	      2.25789005	     -0.90146809
      1.98000000	      0.61081419	      1.42289814	    144.95104245	     -0.38488281	      1.06524424	      0.86566406	     -4.23049831	     13.88547060	      4.75432919	     -8.52645126	     10.92101633	    -13.27618124	     23.56628143	     -6.00771751	     10.73592930	    -42.83766677	      9.28303846	     -2.13693182	     -4.67267146	      2.08207210	     -0.77898950
      1.99000000	      0.55797997	      1.21651499	    143.86986092	     -0.38988602	      1.06476723	      0.85977288	     -4.61382626	     13.64747319	      5.76154913	     -8.79296100	     11.26159060	    -13.31086535	     23.90979963	     -5.79141618	     10.74158932	    -40.59653138	      9.33043565	     -1.87917831	     -4.60454121	      1.89433583	     -0.64696276
      2.00000000	      0.49489010	      0.96367279	    142.81791577	     -0.39494438	      1.06422772	      0.85389275	     -4.93021523	     13.35900301	      6.71309666	     -9.12787818	     11.64424785	    -13.29615082	     24.22345374	     -5.54004218	     10.62263197	    -38.27554092	      9.27305356	     -1.45650847	     -4.50169816	      1.66795874	     -0.55826825
      2.01000000	      0.39628388	      0.70010268	    141.79023946	     -0.40004857	      1.06367317	      0.84799662	     -5.23717237	     13.03663705	      7.63295843	     -9.50565574	     12.06161989	    -13.25805750	     24.46396611	     -5.26871942	     10.37791703	    -35.89032589	      9.12535962	     -0.85873866	     -4.41396901	      1.41429399	     -0.49551718
      2.02000000	      0.25073916	      0.43200777	    140.79494423	     -0.40521846	      1.06311769	      0.84208820	     -5.55559947	     12.67735179	      8.50667401	     -9.90872396	     12.49772898	    -13.20715658	     24.61903149	     -4.96690462	     10.01471460	    -33.45589930	      8.89707905	     -0.06275630	     -4.35428165	      1.13160419	     -0.46228328
      2.03000000	      0.06347843	      0.16131310	    139.82432973	     -0.41045373	      1.06254025	      0.83614181	     -5.88407377	     12.28466790	      9.33376168	    -10.33529119	     12.94933902	    -13.15520013	     24.69397767	     -4.63336309	      9.54561396	    -30.99742522	      8.61190159	      0.89798833	     -4.31645274	      0.82005401	     -0.45737708
      2.04000000	     -0.16996186	     -0.10668934	    138.88541043	     -0.41577874	      1.06194786	      0.83015671	     -6.23566856	     11.85715555	     10.09745396	    -10.77184769	     13.40029565	    -13.11212340	     24.68077344	     -4.25449170	      9.01408354	    -28.53354350	      8.30024614	      2.02690054	     -4.30566279	      0.47935363	     -0.47773838
      2.05000000	     -0.44323886	     -0.37128385	    137.97052059	     -0.42120385	      1.06132557	      0.82412861	     -6.60893357	     11.39549354	     10.80231211	    -11.21406689	     13.85184115	    -13.07882181	     24.58389420	     -3.82434646	      8.46797638	    -26.09070025	      8.01225497	      3.27526772	     -4.31326672	      0.11529381	     -0.52066918
      2.06000000	     -0.75264288	     -0.63140828	    137.08151957	     -0.42674492	      1.06067167	      0.81805017	     -7.00398691	     10.90057413	     11.44435332	    -11.65651340	     14.29830003	    -13.05115382	     24.40363177	     -3.33359593	      7.98774801	    -23.69098208	      7.78731403	      4.60991803	     -4.33395723	     -0.26841928	     -0.58584243
      2.07000000	     -1.08697042	     -0.88575315	    136.21961302	     -0.43239152	      1.05997503	      0.81191430	     -7.41124031	     10.38176763	     12.02733084	    -12.10182243	     14.73629334	    -13.02405498	     24.14596034	     -2.78522894	      7.65789934	    -21.35404331	      7.65615494	      5.98293066	     -4.35834215	     -0.66529732	     -0.66631141
